<svg width="37" height="33" viewBox="0 0 37 33" fill="none" xmlns="http://www.w3.org/2000/svg">
<path d="M26.648 26.1567L29.24 29.2527C27.584 31.2687 25.208 32.3487 22.436 32.3487C18.692 32.3487 16.064 30.9807 12.176 26.8767C5.264 26.0127 0.404 20.7927 0.404 13.9527C0.404 6.46473 6.236 0.920734 14.192 0.920734C22.112 0.920734 27.98 6.42873 27.98 13.9527C27.98 19.8567 24.344 24.5367 18.98 26.2647C20.204 27.5607 21.284 28.0287 22.544 28.0287C24.092 28.0287 25.46 27.4167 26.648 26.1567ZM6.308 13.9527C6.308 18.7407 9.692 22.0167 14.192 22.0167C18.692 22.0167 22.076 18.7407 22.076 13.9527C22.076 9.16473 18.692 5.88873 14.192 5.88873C9.692 5.88873 6.308 9.16473 6.308 13.9527ZM33.3879 26.8407C31.4439 26.8407 29.8959 25.3647 29.8959 23.3127C29.8959 21.2247 31.4439 19.8567 33.3879 19.8567C35.3319 19.8567 36.8799 21.2247 36.8799 23.3127C36.8799 25.3647 35.3319 26.8407 33.3879 26.8407Z" fill="#00489D"/>
</svg>
