<svg width="500" height="332" viewBox="0 0 500 332" fill="none" xmlns="http://www.w3.org/2000/svg">
<rect x="0.722659" y="0.722659" width="498.555" height="330.51" stroke="white" stroke-width="1.44532"/>
<path d="M143.682 106.625C143.659 106.324 143.601 105.942 143.509 105.48C143.44 105.017 143.359 104.567 143.266 104.127C143.174 103.665 143.07 103.306 142.954 103.052H145.347C145.741 103.052 146.018 102.994 146.18 102.878C146.365 102.763 146.457 102.508 146.457 102.115V88.934H141.566V97.6753H142.676V91.0153H145.313V100.693H135.323V91.0499H137.924V97.6753H139V88.934H134.247V106.521H130.883V76.4464H149.753V103.642C149.753 104.682 149.464 105.434 148.886 105.896C148.307 106.382 147.417 106.625 146.215 106.625H143.682ZM154.262 106.625C154.239 106.278 154.181 105.85 154.089 105.341C154.019 104.832 153.927 104.335 153.811 103.85C153.696 103.364 153.58 102.982 153.464 102.705H156.066C156.505 102.705 156.817 102.636 157.002 102.497C157.211 102.358 157.315 102.069 157.315 101.63V75.6486H160.853V103.329C160.853 104.486 160.529 105.318 159.882 105.827C159.234 106.359 158.24 106.625 156.898 106.625H154.262ZM151.556 98.4384V78.5277H155.025V98.4384H151.556ZM134.247 85.8468H137.265C136.988 85.2455 136.641 84.5865 136.225 83.8696C135.831 83.1296 135.45 82.5168 135.08 82.0312L137.716 80.6436C138.109 81.1986 138.525 81.8808 138.965 82.6902C139.404 83.4765 139.751 84.1702 140.005 84.7715C139.774 84.8871 139.45 85.049 139.034 85.2571C138.618 85.4652 138.248 85.6618 137.924 85.8468H140.665C141.011 85.0374 141.358 84.124 141.705 83.1065C142.075 82.089 142.353 81.2333 142.538 80.5396L145.451 81.4068C145.22 82.0543 144.943 82.7943 144.619 83.6268C144.295 84.4362 143.971 85.1762 143.648 85.8468H146.457V79.7765H134.247V85.8468ZM185.55 106.798V99.7218C184.533 100.554 183.365 101.398 182.047 102.254C180.752 103.087 179.399 103.85 177.988 104.543C176.601 105.26 175.248 105.862 173.93 106.347C173.745 105.838 173.421 105.26 172.959 104.613C172.519 103.965 172.103 103.468 171.71 103.121C172.843 102.797 174.046 102.358 175.318 101.803C176.613 101.248 177.884 100.635 179.133 99.9647C180.382 99.2709 181.503 98.5887 182.498 97.9181H172.334V94.6921H185.55V93.5821H183.816C183.793 93.1196 183.7 92.5299 183.538 91.8131C183.4 91.0731 183.249 90.5181 183.088 90.1481H185.273C185.666 90.1481 185.955 90.0787 186.14 89.9399C186.325 89.8012 186.418 89.5352 186.418 89.1421V86.8874C184.799 88.2287 182.983 89.489 180.972 90.6684C178.96 91.8478 176.855 92.8306 174.658 93.6168C174.427 93.1543 174.08 92.6109 173.618 91.9865C173.178 91.339 172.785 90.8418 172.438 90.4949C174.057 90.0324 175.676 89.4196 177.295 88.6565C178.937 87.8934 180.463 87.0493 181.873 86.1243H172.959V83.0024H184.961C184.174 82.5862 183.388 82.193 182.602 81.823C181.839 81.453 181.133 81.1293 180.486 80.8518L181.978 79.1174H175.664V75.9955H197.414L199.183 77.9033C198.651 78.3196 197.969 78.8283 197.136 79.4296C196.304 80.0308 195.425 80.6436 194.5 81.268C193.598 81.8924 192.742 82.4705 191.933 83.0024H201.056L202.686 84.3899C202.339 84.8062 201.877 85.3496 201.299 86.0202C200.744 86.6677 200.142 87.3615 199.495 88.1015C198.847 88.8184 198.211 89.5121 197.587 90.1827C196.986 90.8302 196.477 91.3506 196.061 91.7437C195.76 91.4431 195.309 91.0846 194.708 90.6684C194.107 90.229 193.563 89.8937 193.078 89.6624C193.378 89.3849 193.737 89.0265 194.153 88.5871C194.569 88.1246 194.985 87.6737 195.402 87.2343C195.818 86.7718 196.142 86.4018 196.373 86.1243H190.199V90.5296C190.199 91.4546 189.979 92.1484 189.539 92.6109V94.6921H202.859V97.9181H192.869C193.887 98.5656 195.009 99.2247 196.234 99.8953C197.46 100.566 198.697 101.179 199.946 101.734C201.218 102.266 202.397 102.693 203.484 103.017C203.114 103.387 202.698 103.896 202.235 104.543C201.773 105.191 201.426 105.792 201.194 106.347C199.876 105.862 198.512 105.249 197.101 104.509C195.691 103.792 194.326 103.006 193.008 102.15C191.713 101.271 190.557 100.404 189.539 99.5484V106.798H185.55ZM188.429 81.3374C189.008 80.9905 189.609 80.609 190.233 80.1927C190.881 79.7533 191.389 79.3949 191.759 79.1174H184.163C184.833 79.4411 185.527 79.7996 186.244 80.1927C186.984 80.5627 187.713 80.9443 188.429 81.3374ZM241.363 91.3274C240.9 90.5874 240.287 89.7434 239.524 88.7952C238.738 88.8877 237.732 89.0034 236.507 89.1421C235.304 89.2577 234.009 89.3734 232.621 89.489C231.234 89.6046 229.87 89.7202 228.528 89.8359C227.21 89.9515 226.031 90.044 224.99 90.1134C223.95 90.1827 223.186 90.229 222.701 90.2521L222.25 86.6099C222.712 86.6099 223.314 86.5984 224.054 86.5752C224.817 86.5521 225.661 86.5174 226.586 86.4712C226.91 85.8468 227.256 85.153 227.626 84.3899C228.02 83.6268 228.355 82.9215 228.632 82.274H221.938V79.8458C221.637 80.2621 221.267 80.7708 220.828 81.3721C220.411 81.9733 220.122 82.4358 219.96 82.7596C219.544 82.3896 218.966 81.9502 218.226 81.4415C217.509 80.9327 216.758 80.4471 215.971 79.9846C215.185 79.5221 214.491 79.1636 213.89 78.9093L215.971 75.6486C216.55 75.8799 217.209 76.2036 217.949 76.6199C218.712 77.0361 219.452 77.4755 220.169 77.938C220.886 78.3774 221.475 78.7821 221.938 79.1521V78.8052H230.61V75.0589H234.737V78.8052H244.381V82.274H238.484C239.131 82.829 239.825 83.4996 240.565 84.2858C241.328 85.0721 242.057 85.8699 242.75 86.6793C243.444 87.4655 243.999 88.1709 244.415 88.7952C243.976 89.0265 243.456 89.4081 242.854 89.9399C242.253 90.4487 241.756 90.9112 241.363 91.3274ZM239.455 106.555C238.345 106.555 237.547 106.382 237.062 106.035C236.576 105.711 236.333 105.098 236.333 104.197V91.4662H240.045V101.907C240.045 102.208 240.102 102.416 240.218 102.532C240.334 102.624 240.542 102.67 240.842 102.67C241.305 102.67 241.652 102.601 241.883 102.462C242.114 102.323 242.276 102.023 242.369 101.56C242.484 101.075 242.577 100.346 242.646 99.375C243.039 99.6062 243.594 99.8375 244.311 100.069C245.051 100.3 245.676 100.485 246.184 100.624C245.999 102.196 245.745 103.41 245.421 104.266C245.097 105.122 244.623 105.711 243.999 106.035C243.375 106.382 242.507 106.555 241.397 106.555H239.455ZM222.493 107.076C222.123 106.613 221.672 106.128 221.14 105.619C220.631 105.11 220.122 104.705 219.614 104.405C221.787 103.063 223.244 101.329 223.984 99.2015C224.724 97.0509 225.036 94.4725 224.921 91.4662H228.702C228.702 93.9868 228.517 96.23 228.147 98.1956C227.777 100.138 227.141 101.838 226.239 103.295C225.337 104.752 224.088 106.012 222.493 107.076ZM230.436 106.104V91.4662H234.182V106.104H230.436ZM216.388 106.59L212.85 104.058C213.381 103.364 213.925 102.543 214.48 101.595C215.035 100.647 215.567 99.664 216.075 98.6465C216.607 97.6059 217.081 96.5884 217.498 95.594C217.937 94.5996 218.272 93.7093 218.504 92.9231C218.689 93.1312 218.978 93.3971 219.371 93.7209C219.787 94.0446 220.215 94.3568 220.654 94.6575C221.117 94.9581 221.498 95.2009 221.799 95.3859C221.545 96.1953 221.198 97.1087 220.758 98.1262C220.342 99.1206 219.88 100.138 219.371 101.179C218.862 102.219 218.353 103.214 217.845 104.162C217.336 105.087 216.85 105.896 216.388 106.59ZM218.295 90.7031C217.879 90.3331 217.301 89.8937 216.561 89.3849C215.844 88.8762 215.093 88.3906 214.306 87.9281C213.52 87.4424 212.826 87.0724 212.225 86.818L214.272 83.488C215.289 83.9737 216.399 84.5633 217.602 85.2571C218.804 85.9277 219.799 86.5984 220.585 87.269C220.4 87.4771 220.145 87.8124 219.822 88.2749C219.521 88.7143 219.22 89.1652 218.92 89.6277C218.642 90.0902 218.434 90.4487 218.295 90.7031ZM230.956 86.263C232.043 86.2168 233.096 86.159 234.113 86.0896C235.131 86.0202 236.067 85.9509 236.923 85.8815C236.368 85.3034 235.859 84.8293 235.396 84.4593L238.067 82.274H233.107C232.876 82.7827 232.552 83.4071 232.136 84.1471C231.743 84.8871 231.35 85.5924 230.956 86.263ZM255.307 105.862V102.15H268.627V97.71H259.678V94.0678H282.086V97.71H272.963V102.15H286.318V105.862H255.307ZM255.619 86.159V78.7011H268.627V75.0242H272.998V78.7011H286.006V85.9855H281.982V82.3433H259.713V86.159H255.619ZM275.01 92.3334C273.622 92.3334 272.639 92.1599 272.061 91.8131C271.506 91.4662 271.229 90.8302 271.229 89.9052V83.384H275.218V87.7199C275.218 88.0437 275.299 88.2749 275.461 88.4137C275.623 88.5293 275.923 88.5871 276.363 88.5871H280.039C280.687 88.5871 281.15 88.4137 281.427 88.0668C281.705 87.6968 281.947 87.0377 282.155 86.0896C282.433 86.2515 282.815 86.448 283.3 86.6793C283.786 86.8874 284.271 87.0724 284.757 87.2343C285.243 87.3962 285.624 87.5118 285.902 87.5812C285.509 89.4081 284.954 90.6568 284.237 91.3274C283.52 91.9981 282.445 92.3334 281.011 92.3334H275.01ZM257.458 94.2065C257.227 93.5359 256.938 92.9115 256.591 92.3334C256.267 91.7321 255.932 91.2118 255.585 90.7724C257.943 90.1018 259.921 89.1999 261.516 88.0668C263.135 86.9337 264.314 85.3265 265.054 83.2452L268.593 84.6327C267.575 87.1302 266.118 89.1421 264.222 90.6684C262.349 92.1715 260.094 93.3509 257.458 94.2065ZM306.784 106.729C306.761 106.336 306.691 105.873 306.576 105.341C306.483 104.809 306.367 104.289 306.229 103.78C306.113 103.272 305.986 102.855 305.847 102.532H309.212C309.697 102.532 310.044 102.451 310.252 102.289C310.461 102.127 310.565 101.815 310.565 101.352V96.0796H296.551V92.1253H310.565V88.8299H299.326V84.9449H310.565V81.4415C308.691 81.6033 306.807 81.719 304.911 81.7883C303.037 81.8577 301.211 81.8924 299.43 81.8924C299.337 81.3374 299.199 80.6783 299.014 79.9152C298.829 79.1521 298.632 78.5161 298.424 78.0074C299.904 78.0768 301.511 78.0999 303.246 78.0768C304.98 78.0305 306.761 77.938 308.587 77.7993C310.414 77.6605 312.195 77.4755 313.929 77.2443C315.687 77.013 317.306 76.7355 318.786 76.4118C320.289 76.088 321.572 75.718 322.636 75.3017L325.237 78.8052C323.804 79.2908 322.22 79.7071 320.485 80.054C318.751 80.4008 316.947 80.7015 315.074 80.9558V84.9449H325.619V88.8299H315.074V92.1253H328.394V96.0796H315.074V103.017C315.074 104.312 314.704 105.249 313.964 105.827C313.224 106.428 312.102 106.729 310.599 106.729H306.784ZM349.9 100.971V84.4246H355.346C355.416 84.124 355.485 83.8118 355.554 83.488C355.624 83.1412 355.682 82.8174 355.728 82.5168H347.403V79.1521H352.363C352.063 78.6202 351.75 78.0883 351.427 77.5564C351.103 77.0246 350.814 76.5852 350.559 76.2383L354.063 74.8161C354.456 75.3249 354.895 76.0071 355.381 76.8627C355.89 77.7183 356.306 78.4814 356.63 79.1521H359.578C359.902 78.5046 360.249 77.7646 360.619 76.9321C361.012 76.0764 361.289 75.3596 361.451 74.7814L365.51 75.7874C365.325 76.2268 365.07 76.7586 364.747 77.383C364.446 77.9843 364.134 78.5739 363.81 79.1521H369.221V82.5168H360.064C359.994 82.8174 359.925 83.1412 359.856 83.488C359.786 83.8118 359.717 84.124 359.648 84.4246H367.071V100.971H349.9ZM357.462 106.347C355.011 106.347 352.988 106.22 351.392 105.966C349.819 105.734 348.524 105.364 347.507 104.856C346.513 104.37 345.645 103.757 344.905 103.017C344.489 103.341 343.923 103.711 343.206 104.127C342.512 104.52 341.807 104.913 341.09 105.307C340.373 105.7 339.772 106.035 339.286 106.313L337.69 102.393C338.083 102.254 338.615 102.057 339.286 101.803C339.957 101.549 340.627 101.283 341.298 101.005C341.968 100.705 342.477 100.439 342.824 100.207V91.4315H338.384V87.824H346.605V99.6872C346.883 100.427 347.426 101.028 348.235 101.491C349.045 101.93 350.201 102.254 351.704 102.462C353.207 102.647 355.127 102.74 357.462 102.74C360.422 102.74 362.966 102.693 365.094 102.601C367.221 102.508 368.944 102.37 370.262 102.185C370.146 102.439 370.019 102.832 369.88 103.364C369.742 103.873 369.626 104.393 369.534 104.925C369.441 105.48 369.383 105.931 369.36 106.278C368.713 106.278 367.869 106.278 366.828 106.278C365.787 106.301 364.677 106.313 363.498 106.313C362.342 106.336 361.232 106.347 360.168 106.347C359.104 106.347 358.202 106.347 357.462 106.347ZM344.073 83.6615C343.68 83.0833 343.183 82.459 342.581 81.7883C341.98 81.1177 341.344 80.4702 340.673 79.8458C340.026 79.2215 339.402 78.7011 338.8 78.2849L341.575 75.718C342.13 76.088 342.755 76.5852 343.448 77.2096C344.142 77.8339 344.813 78.4814 345.46 79.1521C346.108 79.7996 346.628 80.3777 347.021 80.8865C346.79 81.0483 346.478 81.3143 346.085 81.6843C345.692 82.0312 345.31 82.3896 344.94 82.7596C344.57 83.1296 344.281 83.4302 344.073 83.6615ZM353.924 98.0568H363.012V96.2531H353.924V98.0568ZM353.924 93.5474H363.012V91.7784H353.924V93.5474ZM353.924 89.0727H363.012V87.3384H353.924V89.0727Z" fill="white"/>
<path d="M83.4849 264.126L77.322 267.8C83.1293 258.2 89.4107 248.955 96.0476 240.067C102.803 231.178 108.255 221.815 112.403 212.097C115.366 209.49 118.684 207.712 122.121 206.882C123.069 208.66 124.254 210.556 125.914 212.453L127.81 212.808L137.054 203.801V202.379C134.447 201.075 131.958 200.245 129.232 200.008C125.44 200.008 122.121 201.193 119.158 203.564L116.195 205.342C112.995 206.764 109.914 208.067 107.188 209.49L104.344 208.423C103.04 206.882 102.447 204.749 102.803 202.26C106.003 200.482 109.44 199.179 113.114 198.349C116.669 197.638 120.106 196.453 123.425 194.912L123.662 193.727C122.003 192.423 120.699 190.646 119.632 188.512L119.158 185.668L117.499 185.194L110.032 192.66C107.899 193.49 105.766 194.912 103.988 196.808L101.618 199.297C99.9586 200.008 98.5364 201.193 97.1142 202.734L95.9291 204.275L93.5587 205.816C89.8847 212.571 85.0256 218.26 78.8627 223.119L73.8851 223.83L72.6999 222.052C73.5295 219.801 74.8332 217.786 76.848 216.127C83.2478 209.016 89.8847 202.142 97.1142 195.386C104.344 188.631 111.099 181.638 117.618 174.172L119.869 170.972L126.862 168.127H129.351L131.247 170.142L133.499 170.616C136.225 168.127 138.239 165.165 139.306 161.965H136.699C133.38 162.202 129.943 162.439 126.506 162.794C123.069 163.15 119.988 164.216 117.38 166.113C114.536 168.127 113.588 170.972 114.181 174.409L111.929 175.357L110.032 177.727L105.647 178.794C103.751 178.557 101.973 177.727 100.551 176.068L98.4179 172.039C95.218 173.105 92.2551 173.698 89.2922 173.698L85.1441 172.75L84.67 168.957L85.8552 167.653C89.5292 166.35 93.2032 164.928 96.6402 163.387L96.8772 162.32C95.9291 159.476 95.3365 156.868 94.9809 154.143L95.0994 152.009L96.7587 151.654L97.9438 150.113L104.344 149.283C106.24 150.469 108.018 151.535 109.677 152.483L111.692 154.972L115.721 157.935C120.343 156.513 125.203 155.446 130.18 154.735C135.158 154.024 140.373 153.313 145.706 152.602V149.639L144.521 146.795L144.995 145.254L146.417 144.424L148.432 142.765L153.765 142.291L157.913 144.78L162.417 151.535L164.076 152.246L165.735 151.891L170.357 155.209L167.276 159.12C165.024 160.068 162.654 160.542 159.928 160.542L158.032 160.068L152.106 165.639C149.735 166.824 147.484 168.009 145.232 169.194L144.758 170.379C151.632 172.75 158.15 175.594 164.194 178.912C170.357 182.349 176.283 186.26 181.972 190.764L184.224 195.623L183.157 197.757C181.379 199.297 179.364 200.482 177.231 201.193C174.861 200.719 172.846 199.297 170.95 197.045C169.291 194.557 167.394 192.423 164.905 190.409C162.535 188.394 160.165 186.379 158.032 184.127L156.135 183.416C153.291 180.453 149.854 178.557 145.943 177.964C142.032 177.253 138.002 176.779 133.854 176.542L136.462 180.098L138.002 185.905C137.054 186.616 136.699 187.564 137.054 188.631C142.624 188.631 147.839 189.46 152.698 191.238C157.083 194.32 158.98 198.349 158.624 203.327L157.439 204.867C154.357 207.356 151.039 209.016 147.484 210.201C143.81 211.386 140.491 213.045 137.528 215.534C134.921 219.326 131.839 223 128.165 226.793C123.899 230.585 118.803 232.956 112.758 233.904L110.981 233.548C109.203 235.089 108.136 236.867 107.899 238.645C105.647 241.489 103.396 244.096 101.025 246.704L99.8401 248.837C98.0623 251.563 96.5216 254.407 95.3365 257.489L92.2551 260.926L90.3588 263.77L83.4849 264.126ZM128.047 268.155L125.084 268.274L123.069 264.244L123.543 263.059L123.069 259.859C125.321 256.185 128.402 253.104 131.958 250.733C135.513 248.244 138.476 245.519 140.491 242.2L138.121 242.674L135.158 242.2C131.128 244.689 127.099 246.941 123.069 248.718L121.173 248.007C119.514 246.585 118.921 244.689 119.158 242.437L122.951 239C126.743 236.63 131.01 234.734 135.75 233.43C140.491 232.245 145.35 231.534 150.328 231.534C154.239 232.956 157.913 235.326 161.113 238.408C163.009 240.304 163.602 242.556 163.246 245.281C160.402 246.704 157.794 247.889 155.187 249.074L154.002 248.718L151.987 250.496L150.921 252.037L149.735 252.274L155.187 255.711C156.728 257.252 157.557 259.266 157.557 261.755L154.12 264.007L152.817 264.6L152.343 266.14C150.446 266.851 148.432 267.088 146.061 267.088L140.017 266.851C135.869 267.207 131.839 267.681 128.047 268.155ZM112.284 268.985L111.573 269.459C108.847 267.325 105.766 265.548 102.566 263.77C100.196 259.385 99.129 254.644 99.129 249.43L100.433 247.533C101.973 246.704 103.751 246.348 105.647 246.585C109.558 251.207 113.825 255.711 118.21 259.977L119.277 264.007C118.803 265.429 117.736 266.377 116.314 266.851L114.181 268.985H112.284ZM115.603 225.845L117.855 224.423L118.329 223.237H115.603L114.418 225.845H115.603ZM263.155 261.044L255.926 264.363L254.978 260.333C255.807 256.896 256.4 253.341 256.755 249.904C257.111 246.467 257.467 242.911 257.822 239.474L256.874 236.511L255.689 236.037L254.978 238.289L253.437 239.119L248.933 243.741C244.548 244.689 240.637 246.704 237.082 249.548C234.237 252.155 231.274 254.526 228.075 256.422C225.941 257.489 223.571 258.081 221.082 258.081L219.778 257.489L218.593 257.844L215.512 256.422L214.801 253.459C216.104 251.681 217.882 250.378 219.897 249.667C224.519 247.889 229.141 245.756 233.645 243.03C238.148 240.422 242.652 237.222 246.919 233.785L247.156 232.363C245.733 231.178 244.193 230.467 242.533 230.23L238.859 232.008L237.674 233.43C234.119 234.378 230.445 234.852 226.652 234.852L224.401 233.311L223.926 229.637C227.956 227.623 232.223 226.2 236.489 225.015C240.756 223.83 244.904 222.289 248.815 220.156L249.052 219.089C247.985 217.786 247.511 216.364 247.748 214.586L254.385 205.816H252.963L247.748 207.356L247.156 208.66L239.689 209.371L237.793 207.356L236.371 205.816C234 203.09 232.697 200.127 232.46 196.808C232.104 193.371 231.986 189.816 231.986 186.142C232.815 182.705 234.474 179.387 236.845 176.424L239.926 175.238L241.941 176.779L242.415 180.809L241.704 188.868C242.178 192.779 243.363 196.334 245.378 199.771L247.037 200.127L249.052 199.297C253.318 199.06 256.992 197.401 259.955 194.083L262.681 190.053L265.881 185.668L259.955 190.053C257.704 190.764 255.452 191.12 253.081 191.12L250.948 188.868L250.474 185.549L251.185 184.127C254.385 182.349 257.822 181.046 261.615 180.453C265.289 179.861 268.963 179.031 272.518 177.964L277.733 181.638L279.036 183.89L281.17 184.246L283.303 182.823L287.807 178.32L285.199 171.801L283.303 170.261V168.483L284.725 166.231L289.703 165.639C292.31 166.587 294.681 168.009 296.814 169.787L303.925 177.253V178.557C303.688 181.283 302.384 183.416 300.251 185.075C296.577 187.446 292.547 189.223 288.399 190.764C284.251 192.305 280.103 193.608 275.955 195.031L269.2 197.282L273.229 201.668V204.393C271.925 205.816 271.451 207.593 272.044 209.845C273.703 211.03 275.955 211.386 278.444 210.912C282.592 208.541 287.333 207.593 292.666 207.712L296.34 209.371L297.169 211.504L296.103 215.178C291.244 215.652 286.266 215.652 281.17 215.06C277.496 216.008 273.94 217.43 270.503 219.208C269.555 221.578 269.2 224.186 269.437 227.267L270.385 228.926C270.266 236.393 270.148 243.741 270.029 251.207L269.555 252.274C269.555 255.474 268.844 257.844 267.422 259.503L263.155 261.044ZM292.903 254.17L291.481 253.104L287.096 252.037L284.962 252.274L283.303 251.444V249.904L287.096 244.333C282.118 242.319 277.022 240.541 271.925 238.763L271.096 236.511C273.585 234.734 276.548 234.022 279.629 234.259C283.303 234.497 286.859 235.089 290.058 236.156C293.258 237.222 296.458 238.526 299.421 240.185L302.503 244.57L302.977 246.941L304.162 247.178L305.347 248.244L304.162 249.785L302.266 252.274L298.947 254.17L297.169 253.459L292.903 254.17ZM190.742 251.681L190.031 252.155C189.201 251.089 188.135 250.615 186.594 250.852L185.883 247.533L188.846 241.607C191.572 236.985 194.06 232.245 196.668 227.386C199.157 222.408 202.238 217.786 205.675 213.401C207.097 211.741 208.875 211.03 211.245 211.504L211.482 215.178C209.823 221.46 207.69 227.504 204.845 233.548C202.119 239.593 198.801 245.4 195.009 250.97L190.742 251.681ZM256.044 220.038L257.111 218.26L256.044 217.786L252.489 220.038L252.252 221.223L256.044 220.038ZM198.327 195.268L197.616 196.216C196.431 194.32 195.957 192.423 196.194 190.171L197.142 179.979C195.838 177.016 195.127 173.698 195.009 170.261L196.075 168.009L199.275 164.691L207.216 167.298C210.179 170.616 213.26 173.698 216.697 176.779L216.934 181.757C216.46 183.653 215.63 185.431 214.445 186.853C211.245 187.09 208.401 188.275 206.268 190.764C205.082 192.66 203.542 194.083 201.764 195.268H198.327ZM251.778 182.942L249.289 182.349L248.815 179.268C252.607 175.12 257.348 172.868 262.681 172.394L263.037 171.209H265.881C268.963 171.446 271.925 172.276 274.651 173.698C268.844 175.594 263.155 177.964 257.585 180.927C256.044 182.586 254.03 183.179 251.778 182.942ZM225.23 179.624L219.778 179.031L218.593 176.187L222.03 172.513C225.467 171.92 228.786 171.09 232.104 169.905C235.304 168.72 238.622 167.653 242.059 166.35L242.889 166.705L250 165.165L250.356 164.098L245.496 158.528V153.787L247.63 151.298L252.252 150.943C255.689 152.365 259.007 154.143 262.326 156.394C263.511 157.817 264.222 159.476 264.222 161.728C265.763 162.676 267.54 163.031 269.911 162.676C273.822 162.913 277.496 162.439 280.933 161.135C284.251 159.831 287.688 158.765 291.244 158.054L292.666 158.409L295.629 158.054C297.762 158.291 299.54 159.12 300.962 160.779L301.436 163.742L299.184 166.35L296.695 166.824C291.481 166.231 286.503 165.402 281.762 164.335C279.866 164.809 277.97 165.283 276.192 165.757L273.466 165.402C265.644 167.772 257.585 170.142 249.526 172.75C241.467 175.238 233.289 177.609 225.23 179.624ZM343.865 261.992L338.176 264.244L335.569 264.718C333.08 264.363 330.947 263.533 328.932 262.229L326.443 259.859L326.087 256.778L330.117 250.852L333.791 249.548L340.902 240.778C336.28 241.252 332.132 240.422 328.695 238.408L326.206 235.919V234.378C327.391 233.193 328.102 232.008 328.102 230.585L329.643 229.637L330.354 227.149L329.998 225.608L333.198 224.186L333.672 226.082H336.28C341.02 222.763 345.88 219.682 350.739 216.601C355.598 213.401 360.694 211.267 366.027 210.082L361.642 208.897C358.205 210.082 354.768 211.386 351.213 212.808C347.776 214.349 344.576 215.889 341.376 217.549C344.457 214.704 347.42 212.097 350.502 209.49C353.465 207.001 356.19 204.275 358.442 201.549V198.823C356.072 194.912 354.413 190.646 353.702 186.023L357.376 185.549C360.457 186.972 363.42 188.275 366.264 189.697C369.227 191.12 371.953 193.016 374.56 195.742C377.523 198.586 378.946 202.142 378.709 206.053C380.842 207.238 383.331 207.712 386.056 207.712L389.256 211.149L390.679 211.623L390.916 214.586C390.797 217.43 389.849 219.919 388.19 222.289L382.975 226.674C377.879 228.215 372.901 230.467 368.161 233.193C363.42 236.037 358.798 238.763 354.176 241.607C349.672 244.215 345.998 247.652 343.154 252.037H345.405C350.383 250.615 355.361 249.193 360.339 247.889C365.316 246.704 370.294 244.926 375.153 242.793C378.116 239 380.368 234.971 381.79 230.585L384.871 228.926C389.849 228.926 394.116 230.941 397.553 234.852C399.567 237.104 401.108 239.474 402.293 242.2C404.189 243.504 405.612 245.281 406.56 247.178L408.456 255.948L407.271 258.792L406.56 260.452L401.819 262.229L399.212 258.437L395.538 257.489C393.049 255 390.679 252.155 388.19 249.311C388.427 247.059 387.834 245.281 386.412 244.096L385.701 249.785C379.183 252.155 372.664 254.289 366.146 256.422C359.746 258.437 352.991 260.333 346.117 261.992H343.865ZM383.568 244.452L382.738 242.556L381.553 243.741L381.908 244.926L383.568 244.452ZM309.969 238.171L305.584 238.763L305.11 234.734C309.851 220.986 316.488 207.593 325.021 194.794C333.554 181.994 342.324 169.431 351.331 157.461L353.465 156.039L353.939 152.72L356.072 151.535L356.783 150.232L358.679 149.046L359.153 147.506H360.576L362.827 147.98L369.701 146.676L374.797 151.298L375.272 153.194C374.797 154.972 373.968 156.631 372.783 158.054C371.005 159.357 369.109 160.424 366.975 161.135L365.909 163.742C371.835 165.402 377.168 168.365 381.908 172.868L391.39 181.638C392.93 181.283 394.234 181.875 395.301 183.298C397.79 186.142 400.634 188.512 403.597 190.646C406.56 192.779 409.523 194.912 412.249 197.282L416.634 200.601L419.36 203.445L419.715 205.105C421.374 208.067 422.322 211.386 422.322 214.823L419.478 217.667L417.108 217.904L416.041 217.667L414.619 217.904C408.693 213.993 403.952 208.897 400.397 202.734C397.908 199.534 395.182 196.571 391.982 193.49C388.901 190.527 385.938 187.564 383.212 184.483L371.242 174.646L361.05 172.394L357.02 173.105L355.953 175.357C347.776 183.179 339.954 191.712 332.25 200.719C329.998 203.919 328.102 207.593 326.68 211.504L319.332 220.156C317.791 222.882 316.725 225.963 316.132 229.163C315.421 232.363 313.88 235.208 311.51 237.459L309.969 238.171Z" fill="white"/>
</svg>
